<?xml version="1.0" encoding="UTF-8"?>
<svg width="1882px" height="1438px" viewBox="0 0 1882 1438" version="1.1" xmlns="http://www.w3.org/2000/svg" xmlns:xlink="http://www.w3.org/1999/xlink">
    <!-- Generator: Sketch 42 (36781) - http://www.bohemiancoding.com/sketch -->
    <title>svg_graphics</title>
    <desc>Created with Sketch.</desc>
    <defs></defs>
    <g id="Page-1" stroke="none" stroke-width="1" fill="none" fill-rule="evenodd">
        <g id="svg_graphics">
            <g id="svg:logo" transform="translate(0.000000, 2.000000)" fill="#47A6AC">
                <path d="M791.797284,53.806 C783.249273,53.806 777.357905,69.285 772.826382,79.303 C768.295829,89.322 761.025218,108.885 771.496605,108.885 C780.899127,108.885 786.915616,89.776 791.203686,80.295 C795.492726,70.813 801.840931,53.806 791.797284,53.806 Z M804.925315,51.016 L808.466537,43.187 L844.763337,43.187 L818.509214,101.234 C816.492726,105.391 817.28322,109.128 820.217265,109.112 C822.879728,109.098 825.27934,106.951 828.445199,104.92 L832.833172,111.206 C824.819593,117.925 817.760427,120.342 804.849661,120.342 C794.378274,120.342 789.218235,113.622 787.950533,108.665 C783.249273,114.724 775.450048,120.342 760.811833,120.342 C746.922405,120.342 733.673133,112.19 733.673133,90.599 C733.673133,61.958 758.246363,40.367 786.026188,40.367 C794.787585,40.367 803.765276,45.655 804.925315,51.016 L804.925315,51.016 Z" id="Fill-1"></path>
                <path d="M494.946654,80.295 C490.658584,89.776 484.641125,108.885 475.238603,108.885 C464.768186,108.885 472.037827,89.322 476.56935,79.303 C481.099903,69.285 486.992241,53.806 495.539282,53.806 C505.582929,53.806 499.234724,70.813 494.946654,80.295 Z M627.181377,109.112 C624.247333,109.128 623.456838,105.391 625.473327,101.233 L638.72066,74.211 C645.840931,58.47 641.887488,40.367 619.520854,40.367 C606.841901,40.367 604.57323,43.231 598.447139,46.756 L614.332687,11.63 L578.034918,11.63 L541.166828,93.103 C541.1387,93.165 537.676043,100.785 532.188167,104.92 C529.176528,107.188 526.622696,109.098 523.959263,109.112 C521.025218,109.128 520.235694,105.391 522.252182,101.233 L548.505335,43.187 L512.208535,43.187 L508.668283,51.016 C507.507274,45.655 498.529583,40.367 489.768186,40.367 C461.988361,40.367 437.415131,61.958 437.415131,90.599 C437.415131,112.19 450.664403,120.342 464.554801,120.342 C479.192047,120.342 486.992241,114.724 491.693501,108.665 C492.960233,113.622 498.121242,120.342 508.591659,120.342 C518.583899,120.342 525.069835,118.884 531.206596,115.114 L529.738118,118.359 L565.793404,118.359 L583.400582,79.303 C587.932105,69.285 593.824442,53.806 602.371484,53.806 C612.415131,53.806 602.456838,70.813 598.167798,80.295 C593.879728,89.776 588.604268,101.593 591.531523,109.304 C594.458778,117.015 601.342386,120.342 611.813773,120.342 C624.724539,120.342 631.783705,117.925 639.796314,111.206 L635.409311,104.92 C632.243453,106.951 629.843841,109.098 627.181377,109.112 L627.181377,109.112 Z" id="Fill-2"></path>
                <path d="M346.811833,43.187 L383.108632,43.187 L356.85451,101.234 C354.838021,105.391 355.628516,109.128 358.562561,109.112 C361.225024,109.098 363.624636,106.951 366.790495,104.92 L371.178468,111.206 C363.164888,117.925 356.105723,120.342 343.194956,120.342 C332.723569,120.342 327.563531,113.622 326.295829,108.665 C321.594568,114.724 313.795344,120.342 299.157129,120.342 C276.790495,120.342 270.595538,100.256 277.71484,84.515 L289.936954,57.493 C291.953443,53.335 290.461688,51.58 287.527643,51.596 C284.865179,51.611 282.465567,53.758 279.299709,55.789 L274.912706,49.503 C282.926285,42.784 289.984481,40.367 302.896217,40.367 C313.366634,40.367 319.225024,44.223 322.152279,51.934 C325.079534,59.645 321.530553,68.95 317.242483,78.431 C312.954413,87.913 299.798254,108.885 309.841901,108.885 C317.514064,108.885 325.260912,89.776 329.548982,80.295 L346.811833,43.187" id="Fill-3"></path>
                <path d="M685.071775,81.08 L684.300679,81.08 C684.559651,80.462 684.817653,79.865 685.071775,79.303 C689.603298,69.285 695.494665,53.806 704.042677,53.806 C714.086324,53.806 701.193016,81.08 685.071775,81.08 Z M702.970902,40.367 C671.348206,40.367 645.918526,61.958 645.918526,90.599 C645.918526,112.19 663.391853,120.342 677.28225,120.342 C693.928225,120.342 707.960233,116.082 721.541222,104.323 L717.154219,98.037 C704.113482,106.682 696.991271,109.112 688.728419,109.112 C678.118332,109.112 678.838991,97.913 681.775946,88.098 C698.782735,87.589 722.525703,84.447 731.13579,65.411 C737.102813,52.218 725.127061,40.367 702.970902,40.367 L702.970902,40.367 Z" id="Fill-4"></path>
                <path d="M151.967992,53.646 C143.419981,53.646 136.666343,70.013 132.13579,80.032 C127.604268,90.05 121.687682,109.841 135.791465,109.841 C144.054316,109.841 151.177498,107.41 164.217265,98.765 L168.605238,105.051 C155.024248,116.81 140.991271,121.07 124.345296,121.07 C110.455868,121.07 92.9825412,112.918 92.9825412,91.327 C92.9825412,62.686 118.411251,41.095 150.034918,41.095 C172.190107,41.095 183.838991,52.794 178.198836,66.139 C175.375364,72.821 171.101843,76.566 162.767216,76.566 C154.43356,76.566 151.537342,67.313 155.074685,62.025 C159.348206,55.636 157.188167,53.646 151.967992,53.646" id="Fill-5"></path>
                <path d="M898.500485,53.806 C889.952473,53.806 884.061106,69.285 879.529583,79.303 C874.99903,89.322 867.728419,108.885 878.199806,108.885 C887.602328,108.885 893.618817,89.776 897.906887,80.295 C902.195926,70.813 908.544132,53.806 898.500485,53.806 Z M911.628516,51.016 L929.305529,11.933 L965.602328,11.933 L925.212415,101.234 C923.195926,105.391 923.986421,109.128 926.920466,109.112 C929.582929,109.098 931.982541,106.951 935.1484,104.92 L939.536372,111.206 C931.522793,117.925 924.463628,120.342 911.552861,120.342 C901.081474,120.342 895.921435,113.622 894.653734,108.665 C889.952473,114.724 882.153249,120.342 867.515034,120.342 C853.625606,120.342 840.376334,112.19 840.376334,90.599 C840.376334,61.958 864.949564,40.367 892.729389,40.367 C901.490786,40.367 910.468477,45.655 911.628516,51.016 L911.628516,51.016 Z" id="Fill-6"></path>
                <path d="M236.673133,54.535 C228.125121,54.535 221.371484,70.013 216.840931,80.032 C212.309408,90.05 202.454898,109.613 212.925315,109.613 C222.327837,109.613 230.930165,90.504 235.218235,81.023 C239.506305,71.542 246.71678,54.535 236.673133,54.535 Z M213.556741,121.07 C186.034918,121.07 171.355965,96.328 182.251212,72.239 C192.114452,50.429 211.089234,41.095 236.352085,41.095 C269.802134,41.095 277.691562,65.838 266.796314,89.927 C256.932105,111.736 237.249273,121.07 213.556741,121.07 L213.556741,121.07 Z" id="Fill-7"></path>
                <path d="M435.911736,50.78 L447.320078,50.78 L450.933075,42.791 L439.525703,42.791 L450.505335,18.514 L439.318138,18.514 C428.491756,30.6 408.386033,42.791 392.733269,42.791 L389.120272,50.78 L399.13676,50.78 L385.787585,80.295 C381.498545,89.776 377.249273,101.064 380.176528,108.775 C383.103783,116.486 388.962173,120.342 399.43259,120.342 C412.344326,120.342 419.402522,117.925 427.416101,111.206 L423.028128,104.92 C419.86227,106.951 417.462658,109.098 414.800194,109.112 C411.866149,109.128 411.076625,105.391 413.093113,101.233 L435.911736,50.78" id="Fill-8"></path>
                <path d="M93.4694471,42.205 C86.6692532,38.936 84.3181377,29.295 88.2182347,20.672 C92.1183317,12.049 100.793404,7.709 107.593598,10.978 C114.393792,14.247 116.744908,23.888 112.844811,32.511 C108.944714,41.134 100.269641,45.474 93.4694471,42.205" id="Fill-9"></path>
                <path d="M41.1823472,26.825 C37.3811833,36.783 36.3511154,44.889 38.6304559,65.893 C40.9097963,86.896 43.0417071,105.185 30.5101843,109.061 C26.1774976,110.401 22.6915616,108.417 21.2463628,106.007 C25.2803104,103.654 29.643065,100.352 32.0155189,95.106 C36.928225,84.244 33.7895247,71.628 25.8777886,67.824 C17.9650824,64.02 7.56838021,69.741 2.65664403,80.602 C-0.251212415,87.031 -0.376333657,95.92 0.421920466,99.065 C2.59456838,107.612 10.4946654,122 36.3161979,122 C71.5363725,122 86.9253152,102.906 84.0756547,69.418 C82.6013579,52.088 77.9728419,38.384 81.0979631,23.739 C83.2502425,13.653 90.4587779,5.909 101.57711,4.29 C100.419981,3.733 99.2259942,3.208 97.9796314,2.735 C78.4558681,-4.658 49.9815713,3.781 41.1823472,26.825" id="Fill-11"></path>
                <path d="M997.681862,23.174 L997.264791,16.386 C997.225994,15.496 997.225994,14.393 997.187197,13.162 L997.061106,13.162 C996.779825,14.181 996.450048,15.538 996.120272,16.599 L994.102813,23.005 L991.794374,23.005 L989.776916,16.429 C989.57323,15.538 989.243453,14.181 989.00097,13.162 L988.874879,13.162 C988.874879,14.223 988.836081,15.326 988.797284,16.386 L988.380213,23.174 L986.246363,23.174 L987.070805,11.636 L990.397672,11.636 L992.337536,17.277 C992.580019,18.169 992.783705,19.017 993.074685,20.204 L993.113482,20.204 C993.404462,19.144 993.646945,18.169 993.899127,17.32 L995.829292,11.636 L999.039767,11.636 L999.903007,23.174 L997.681862,23.174 Z M985.586809,11.636 L985.586809,13.545 L982.007759,13.545 L982.007759,23.174 L979.786615,23.174 L979.786615,13.545 L976.207565,13.545 L976.207565,11.636 L985.586809,11.636 L985.586809,11.636 Z" id="Fill-13"></path>
            </g>
            <g id="svg:close" transform="translate(0.000000, 2.000000)" stroke="#979797" fill="#D8D8D8">
                <polyline id="Line" points="1.12827234 1.79873737 99.7867558 100.452722 100.122135 100.788086 100.792893 100.117358 100.457514 99.7819941 1.79903059 1.12800971 1.46365147 0.792645879 0.792893219 1.46337354"></polyline>
                <polyline id="Line" points="1.79903059 100.448162 100.457514 1.79417713 100.792893 1.4588133 100.122135 0.788085638 99.7867558 1.12344947 1.12827234 99.7774339 0.792893219 100.112798 1.46365147 100.783525"></polyline>
            </g>
        </g>
    </g>
</svg>