<?xml version="1.0" encoding="UTF-8"?>
<svg width="1882px" height="1438px" viewBox="0 0 1882 1438" version="1.1" xmlns="http://www.w3.org/2000/svg" xmlns:xlink="http://www.w3.org/1999/xlink">
    <!-- Generator: Sketch 42 (36781) - http://www.bohemiancoding.com/sketch -->
    <title>svg_graphics</title>
    <desc>Created with Sketch.</desc>
    <defs></defs>
    <g id="Page-1" stroke="none" stroke-width="1" fill="none" fill-rule="evenodd">
        <g id="svg_graphics">
            <g id="svg:logo" transform="translate(0.000000, 2.000000)">
                <path d="M791.797284,53.806 C783.249273,53.806 777.357905,69.285 772.826382,79.303 C768.295829,89.322 761.025218,108.885 771.496605,108.885 C780.899127,108.885 786.915616,89.776 791.203686,80.295 C795.492726,70.813 801.840931,53.806 791.797284,53.806 Z M804.925315,51.016 L808.466537,43.187 L844.763337,43.187 L818.509214,101.234 C816.492726,105.391 817.28322,109.128 820.217265,109.112 C822.879728,109.098 825.27934,106.951 828.445199,104.92 L832.833172,111.206 C824.819593,117.925 817.760427,120.342 804.849661,120.342 C794.378274,120.342 789.218235,113.622 787.950533,108.665 C783.249273,114.724 775.450048,120.342 760.811833,120.342 C746.922405,120.342 733.673133,112.19 733.673133,90.599 C733.673133,61.958 758.246363,40.367 786.026188,40.367 C794.787585,40.367 803.765276,45.655 804.925315,51.016 L804.925315,51.016 Z" id="Fill-1" fill="#47A6AC"></path>
                <path d="M494.946654,80.295 C490.658584,89.776 484.641125,108.885 475.238603,108.885 C464.768186,108.885 472.037827,89.322 476.56935,79.303 C481.099903,69.285 486.992241,53.806 495.539282,53.806 C505.582929,53.806 499.234724,70.813 494.946654,80.295 Z M627.181377,109.112 C624.247333,109.128 623.456838,105.391 625.473327,101.233 L638.72066,74.211 C645.840931,58.47 641.887488,40.367 619.520854,40.367 C606.841901,40.367 604.57323,43.231 598.447139,46.756 L614.332687,11.63 L578.034918,11.63 L541.166828,93.103 C541.1387,93.165 537.676043,100.785 532.188167,104.92 C529.176528,107.188 526.622696,109.098 523.959263,109.112 C521.025218,109.128 520.235694,105.391 522.252182,101.233 L548.505335,43.187 L512.208535,43.187 L508.668283,51.016 C507.507274,45.655 498.529583,40.367 489.768186,40.367 C461.988361,40.367 437.415131,61.958 437.415131,90.599 C437.415131,112.19 450.664403,120.342 464.554801,120.342 C479.192047,120.342 486.992241,114.724 491.693501,108.665 C492.960233,113.622 498.121242,120.342 508.591659,120.342 C518.583899,120.342 525.069835,118.884 531.206596,115.114 L529.738118,118.359 L565.793404,118.359 L583.400582,79.303 C587.932105,69.285 593.824442,53.806 602.371484,53.806 C612.415131,53.806 602.456838,70.813 598.167798,80.295 C593.879728,89.776 588.604268,101.593 591.531523,109.304 C594.458778,117.015 601.342386,120.342 611.813773,120.342 C624.724539,120.342 631.783705,117.925 639.796314,111.206 L635.409311,104.92 C632.243453,106.951 629.843841,109.098 627.181377,109.112 L627.181377,109.112 Z" id="Fill-2" fill="#47A6AC"></path>
                <path d="M346.811833,43.187 L383.108632,43.187 L356.85451,101.234 C354.838021,105.391 355.628516,109.128 358.562561,109.112 C361.225024,109.098 363.624636,106.951 366.790495,104.92 L371.178468,111.206 C363.164888,117.925 356.105723,120.342 343.194956,120.342 C332.723569,120.342 327.563531,113.622 326.295829,108.665 C321.594568,114.724 313.795344,120.342 299.157129,120.342 C276.790495,120.342 270.595538,100.256 277.71484,84.515 L289.936954,57.493 C291.953443,53.335 290.461688,51.58 287.527643,51.596 C284.865179,51.611 282.465567,53.758 279.299709,55.789 L274.912706,49.503 C282.926285,42.784 289.984481,40.367 302.896217,40.367 C313.366634,40.367 319.225024,44.223 322.152279,51.934 C325.079534,59.645 321.530553,68.95 317.242483,78.431 C312.954413,87.913 299.798254,108.885 309.841901,108.885 C317.514064,108.885 325.260912,89.776 329.548982,80.295 L346.811833,43.187" id="Fill-3" fill="#47A6AC"></path>
                <path d="M685.071775,81.08 L684.300679,81.08 C684.559651,80.462 684.817653,79.865 685.071775,79.303 C689.603298,69.285 695.494665,53.806 704.042677,53.806 C714.086324,53.806 701.193016,81.08 685.071775,81.08 Z M702.970902,40.367 C671.348206,40.367 645.918526,61.958 645.918526,90.599 C645.918526,112.19 663.391853,120.342 677.28225,120.342 C693.928225,120.342 707.960233,116.082 721.541222,104.323 L717.154219,98.037 C704.113482,106.682 696.991271,109.112 688.728419,109.112 C678.118332,109.112 678.838991,97.913 681.775946,88.098 C698.782735,87.589 722.525703,84.447 731.13579,65.411 C737.102813,52.218 725.127061,40.367 702.970902,40.367 L702.970902,40.367 Z" id="Fill-4" fill="#47A6AC"></path>
                <path d="M151.967992,53.646 C143.419981,53.646 136.666343,70.013 132.13579,80.032 C127.604268,90.05 121.687682,109.841 135.791465,109.841 C144.054316,109.841 151.177498,107.41 164.217265,98.765 L168.605238,105.051 C155.024248,116.81 140.991271,121.07 124.345296,121.07 C110.455868,121.07 92.9825412,112.918 92.9825412,91.327 C92.9825412,62.686 118.411251,41.095 150.034918,41.095 C172.190107,41.095 183.838991,52.794 178.198836,66.139 C175.375364,72.821 171.101843,76.566 162.767216,76.566 C154.43356,76.566 151.537342,67.313 155.074685,62.025 C159.348206,55.636 157.188167,53.646 151.967992,53.646" id="Fill-5" fill="#47A6AC"></path>
                <path d="M898.500485,53.806 C889.952473,53.806 884.061106,69.285 879.529583,79.303 C874.99903,89.322 867.728419,108.885 878.199806,108.885 C887.602328,108.885 893.618817,89.776 897.906887,80.295 C902.195926,70.813 908.544132,53.806 898.500485,53.806 Z M911.628516,51.016 L929.305529,11.933 L965.602328,11.933 L925.212415,101.234 C923.195926,105.391 923.986421,109.128 926.920466,109.112 C929.582929,109.098 931.982541,106.951 935.1484,104.92 L939.536372,111.206 C931.522793,117.925 924.463628,120.342 911.552861,120.342 C901.081474,120.342 895.921435,113.622 894.653734,108.665 C889.952473,114.724 882.153249,120.342 867.515034,120.342 C853.625606,120.342 840.376334,112.19 840.376334,90.599 C840.376334,61.958 864.949564,40.367 892.729389,40.367 C901.490786,40.367 910.468477,45.655 911.628516,51.016 L911.628516,51.016 Z" id="Fill-6" fill="#47A6AC"></path>
                <path d="M236.673133,54.535 C228.125121,54.535 221.371484,70.013 216.840931,80.032 C212.309408,90.05 202.454898,109.613 212.925315,109.613 C222.327837,109.613 230.930165,90.504 235.218235,81.023 C239.506305,71.542 246.71678,54.535 236.673133,54.535 Z M213.556741,121.07 C186.034918,121.07 171.355965,96.328 182.251212,72.239 C192.114452,50.429 211.089234,41.095 236.352085,41.095 C269.802134,41.095 277.691562,65.838 266.796314,89.927 C256.932105,111.736 237.249273,121.07 213.556741,121.07 L213.556741,121.07 Z" id="Fill-7" fill="#47A6AC"></path>
                <path d="M435.911736,50.78 L447.320078,50.78 L450.933075,42.791 L439.525703,42.791 L450.505335,18.514 L439.318138,18.514 C428.491756,30.6 408.386033,42.791 392.733269,42.791 L389.120272,50.78 L399.13676,50.78 L385.787585,80.295 C381.498545,89.776 377.249273,101.064 380.176528,108.775 C383.103783,116.486 388.962173,120.342 399.43259,120.342 C412.344326,120.342 419.402522,117.925 427.416101,111.206 L423.028128,104.92 C419.86227,106.951 417.462658,109.098 414.800194,109.112 C411.866149,109.128 411.076625,105.391 413.093113,101.233 L435.911736,50.78" id="Fill-8" fill="#47A6AC"></path>
                <path d="M93.4694471,42.205 C86.6692532,38.936 84.3181377,29.295 88.2182347,20.672 C92.1183317,12.049 100.793404,7.709 107.593598,10.978 C114.393792,14.247 116.744908,23.888 112.844811,32.511 C108.944714,41.134 100.269641,45.474 93.4694471,42.205" id="Fill-9" fill="#47A6AC"></path>
                <path d="M41.1823472,26.825 C37.3811833,36.783 36.3511154,44.889 38.6304559,65.893 C40.9097963,86.896 43.0417071,105.185 30.5101843,109.061 C26.1774976,110.401 22.6915616,108.417 21.2463628,106.007 C25.2803104,103.654 29.643065,100.352 32.0155189,95.106 C36.928225,84.244 33.7895247,71.628 25.8777886,67.824 C17.9650824,64.02 7.56838021,69.741 2.65664403,80.602 C-0.251212415,87.031 -0.376333657,95.92 0.421920466,99.065 C2.59456838,107.612 10.4946654,122 36.3161979,122 C71.5363725,122 86.9253152,102.906 84.0756547,69.418 C82.6013579,52.088 77.9728419,38.384 81.0979631,23.739 C83.2502425,13.653 90.4587779,5.909 101.57711,4.29 C100.419981,3.733 99.2259942,3.208 97.9796314,2.735 C78.4558681,-4.658 49.9815713,3.781 41.1823472,26.825" id="Fill-11" fill="#47A6AC"></path>
                <path d="M997.681862,23.174 L997.264791,16.386 C997.225994,15.496 997.225994,14.393 997.187197,13.162 L997.061106,13.162 C996.779825,14.181 996.450048,15.538 996.120272,16.599 L994.102813,23.005 L991.794374,23.005 L989.776916,16.429 C989.57323,15.538 989.243453,14.181 989.00097,13.162 L988.874879,13.162 C988.874879,14.223 988.836081,15.326 988.797284,16.386 L988.380213,23.174 L986.246363,23.174 L987.070805,11.636 L990.397672,11.636 L992.337536,17.277 C992.580019,18.169 992.783705,19.017 993.074685,20.204 L993.113482,20.204 C993.404462,19.144 993.646945,18.169 993.899127,17.32 L995.829292,11.636 L999.039767,11.636 L999.903007,23.174 L997.681862,23.174 Z M985.586809,11.636 L985.586809,13.545 L982.007759,13.545 L982.007759,23.174 L979.786615,23.174 L979.786615,13.545 L976.207565,13.545 L976.207565,11.636 L985.586809,11.636 L985.586809,11.636 Z" id="Fill-13" fill="#47A6AC"></path>
                <text id="Secure-&amp;-Encrypted-E" font-family="ProximaNova-Semibold, Proxima Nova" font-size="42" font-weight="500" fill="#FFFFFF">
                    <tspan x="645" y="174">Secure &amp; Encrypted Enterprise Collaboration System</tspan>
                </text>
            </g>
            <g id="svg:close" stroke="#979797" fill="#D8D8D8">
                <polyline id="Line" points="1.11710133 1.78092809 98.7987682 99.4581404 99.1308267 99.7901838 99.7949438 99.126097 99.4628852 98.7940536 1.78121841 1.1168413 1.44915987 0.7847979 0.785042791 1.44888469"></polyline>
                <polyline id="Line" points="1.78121841 99.4536253 99.4628852 1.776413 99.7949438 1.4443696 99.1308267 0.78028281 98.7987682 1.11232621 1.11710133 98.7895385 0.785042791 99.1215819 1.44915987 99.7856687"></polyline>
            </g>
            <path d="M43.4923816,60.2806896 C45.7470885,60.2806896 46.8822168,61.286451 46.8822168,63.3059562 L46.8822168,167.027103 C46.8822168,169.333968 45.7470885,170.48341 43.4923816,170.48341 L13.014965,170.48341 C10.7602582,170.48341 9.62512992,169.333968 9.62512992,167.027103 L9.62512992,63.3059562 C9.62512992,61.286451 10.7602582,60.2806896 13.014965,60.2806896 L43.4923816,60.2806896 Z M187.412652,60.2806896 C189.387464,60.2806896 190.37487,61.286451 190.37487,63.3059562 L190.37487,167.027103 C190.37487,169.333968 189.387464,170.48341 187.412652,170.48341 L156.515393,170.48341 C154.252912,170.48341 153.125558,169.333968 153.125558,167.027103 L153.125558,63.3059562 C153.125558,61.286451 154.252912,60.2806896 156.515393,60.2806896 L187.412652,60.2806896 Z M139.154151,14.9016902 C141.416632,14.9016902 142.543986,16.0511319 142.543986,18.3579975 L142.543986,167.027103 C142.543986,169.333968 141.416632,170.48341 139.154151,170.48341 L108.676734,170.48341 C106.422027,170.48341 105.294674,169.333968 105.294674,167.027103 L105.294674,18.3579975 C105.294674,16.0511319 106.422027,14.9016902 108.676734,14.9016902 L139.154151,14.9016902 Z M91.3232661,115.166529 C93.5857478,115.166529 94.7131012,116.315971 94.7131012,118.622837 L94.7131012,167.027103 C94.7131012,169.333968 93.5857478,170.48341 91.3232661,170.48341 L60.8458495,170.48341 C58.5911426,170.48341 57.4637892,169.333968 57.4637892,167.027103 L57.4637892,118.622837 C57.4637892,116.315971 58.5911426,115.166529 60.8458495,115.166529 L91.3232661,115.166529 Z" id="svg:data" fill="#FFFFFF"></path>
            <path d="M195.968876,42.0401449 C198.208033,41.7128733 199.40536,41.633051 199.568632,41.7926957 C199.724129,41.9603226 199.809652,42.8543328 199.809652,44.4827085 L199.809652,144.795441 C199.809652,147.07836 198.60455,149.361279 196.209896,151.644198 C193.807467,153.927117 191.490561,155.068576 189.251404,155.068576 L100.478153,155.068576 L11.7049026,155.068576 C9.14697657,155.068576 6.58905053,153.927117 4.0311245,151.644198 C1.46542361,149.361279 0.190348014,147.07836 0.190348014,144.795441 L0.190348014,44.4827085 C0.190348014,41.5532287 1.62869548,40.7390408 4.50539042,42.0401449 C5.46947196,42.6946881 9.46574547,45.3847009 16.5019858,50.1101833 C23.5382261,54.843648 32.2616091,60.7983944 42.6565851,67.9744226 C53.0515612,75.1504509 61.4484004,80.857748 67.847103,85.0963142 L28.0165404,130.603029 C27.0602337,131.584844 26.8969618,132.399032 27.5422745,133.053575 C27.8610434,133.380847 28.3430841,133.460669 28.9806219,133.293042 C29.6181597,133.133397 30.1002005,132.885948 30.4189694,132.558677 L77.4412693,91.9530531 C84.1665156,96.5188908 88.481558,99.2887259 90.4019462,100.270541 C92.9598723,101.571645 96.318608,102.226188 100.478153,102.226188 C104.637699,102.226188 107.996434,101.571645 110.55436,100.270541 C112.474749,99.2887259 116.789791,96.5188908 123.515037,91.9530531 L170.537337,132.558677 C170.856106,132.885948 171.338147,133.133397 171.975685,133.293042 C172.613223,133.460669 173.095263,133.380847 173.414032,133.053575 C173.732801,132.726303 173.414032,131.912116 172.457726,130.603029 L133.109204,85.0963142 C139.507906,80.857748 147.826997,75.1504509 158.058701,67.9744226 C168.29818,60.7983944 176.93604,54.843648 183.97228,50.1101833 C191.00852,45.3847009 195.012569,42.6946881 195.968876,42.0401449 M9.30247359,40.0844976 C6.10700976,38.4481397 4.0311245,36.6601193 3.06704295,34.6964898 C2.42950515,32.7408425 2.50725366,31.4397384 3.30806334,30.7851952 C4.10887301,30.1306521 5.94373788,29.8033805 8.82820767,29.8033805 L100.478153,29.8033805 L192.128099,29.8033805 C195.012569,29.8033805 196.847434,30.1306521 197.648243,30.7851952 C198.449053,31.4397384 198.526802,32.7408425 197.889264,34.6964898 C196.925182,36.6601193 194.849297,38.4481397 191.653833,40.0844976 C138.862594,69.4431537 111.837211,84.4497533 110.55436,85.0963142 C107.996434,86.4054006 104.637699,87.0599437 100.478153,87.0599437 C96.318608,87.0599437 92.9598723,86.4054006 90.4019462,85.0963142 C89.1190958,84.4497533 62.0937131,69.4431537 9.30247359,40.0844976" id="svg:email" fill="#FFFFFF"></path>
            <path d="M86.3940104,120.02999 L113.60599,120.02999 L113.60599,57.169899 L86.3940104,57.169899 L86.3940104,120.02999 Z M86.3940104,154.952263 L113.60599,154.952263 L113.60599,133.9989 L86.3940104,133.9989 L86.3940104,154.952263 Z M193.966851,164.554891 C195.669544,167.755766 195.949438,170.373939 194.81431,172.417391 C193.399287,174.740221 191.4167,175.905627 188.866549,175.905627 L11.133451,175.905627 C8.58329986,175.905627 6.60071281,174.740221 5.1856899,172.417391 C4.05056162,170.373939 4.33045627,167.755766 6.03314867,164.554891 L94.044464,12.2059758 C95.4672618,9.58780315 97.4498488,8.2787168 100,8.2787168 C102.550151,8.2787168 104.532738,9.58780315 105.955536,12.2059758 L193.966851,164.554891 Z" id="svg:alert" fill="#FFFFFF"></path>
            <path d="M160.993707,82.4302481 C170.727821,82.4302481 179.031362,85.9823422 185.904331,93.0865303 C192.777299,100.190718 196.213783,108.667851 196.213783,118.533892 C196.213783,128.679311 192.777299,137.308106 185.904331,144.412294 C179.031362,151.516482 170.727821,155.068576 160.993707,155.068576 L113.745937,155.068576 L113.745937,120.266036 L134.364842,120.266036 L100,83.7313522 L65.6429326,120.266036 L86.2540631,120.266036 L86.2540631,155.068576 L42.4427767,155.068576 C31.8534294,155.068576 22.7568536,151.149299 15.1685988,143.318728 C7.58034406,135.496139 3.78621668,126.212801 3.78621668,115.484678 C3.78621668,106.784044 6.2197451,99.0332945 11.0868019,92.2164668 C15.9538588,85.3996391 22.2592631,80.6901211 29.9874652,78.0799307 C31.1303683,71.7021258 34.069262,66.4099048 38.7963715,62.2032676 C43.5157062,58.0046126 49.0280757,55.8973029 55.33348,55.8973029 C58.7699642,55.8973029 62.4863431,56.9110466 66.4981663,58.9465162 C70.5099895,50.2458813 76.5899231,43.2135333 84.7535168,37.8494722 C92.9171106,32.485411 101.865964,29.8033805 111.600078,29.8033805 C125.346015,29.8033805 137.008292,34.8002589 146.602458,44.8099801 C156.196624,54.8117191 160.993707,66.9207678 160.993707,81.129144 L160.993707,82.4302481 Z" id="svg:share" fill="#FFFFFF"></path>
            <path d="M175.944746,116.802623 C184.077241,119.700174 188.143488,125.495276 188.143488,134.195911 L156.663115,134.195911 C156.134425,132.168423 154.042991,129.414553 150.365486,125.934299 C145.910496,122.166684 142.232992,119.987534 139.348522,119.412814 L137.381484,119.412814 C136.33188,119.412814 135.476646,119.269133 134.823558,118.973791 C134.170471,118.68643 133.968325,118.103727 134.23267,117.233664 C134.76136,116.371583 136.464052,115.501519 139.348522,114.631456 C143.282597,113.466049 145.381806,112.452306 145.646151,111.582242 L145.646151,105.49978 C144.067856,105.49978 141.712077,105.204437 138.563262,104.629717 C136.984967,104.047014 135.54662,103.472293 134.23267,102.88959 C133.183065,102.306887 133.183065,100.718422 134.23267,98.1082315 C135.01793,96.0807442 135.678792,88.6891956 136.199707,75.933586 C136.728397,63.1779763 140.265954,55.3474049 146.827929,52.4498541 C153.382128,49.5523032 159.679758,49.991326 165.713042,53.7589404 C170.961067,57.2312121 173.581192,63.6090169 173.581192,72.8843727 C173.581192,74.0497788 173.518993,76.2209464 173.38682,79.4058577 C173.254648,82.5987512 173.192449,85.0652615 173.192449,86.7974062 C173.192449,88.5375332 173.449019,90.716683 173.977709,93.3268735 C174.498624,95.9290817 175.291659,98.1082315 176.341264,99.8483585 C177.126524,101.293143 177.126524,102.163206 176.341264,102.450567 C176.076919,102.745909 175.680401,102.88959 175.159486,102.88959 C174.630796,102.88959 174.242054,103.03327 173.977709,103.32063 L169.258374,104.629717 C168.208769,104.917077 166.498302,105.060757 164.142522,105.060757 C164.142522,109.698435 164.26692,112.164945 164.531265,112.452306 C165.316525,113.322369 166.36613,114.048753 167.680079,114.631456 C168.994029,115.206176 170.50235,115.645199 172.205043,115.93256 C173.907735,116.21992 175.159486,116.515263 175.944746,116.802623 L175.944746,116.802623 Z M55.5356261,121.152941 C51.8581215,123.467788 48.7093068,126.221659 46.0891819,129.414553 C44.7752321,132.599464 43.8577997,134.195911 43.3368846,134.195911 L33.493923,134.195911 L11.8565122,134.195911 C11.8565122,125.495276 15.7905869,119.700174 23.6587363,116.802623 C23.9230812,116.802623 25.1048586,116.515263 27.2040684,115.93256 C29.3032782,115.349857 31.1381431,114.775136 32.7086631,114.192433 C34.2869579,113.617712 35.2043903,112.891329 35.4609604,112.021265 C35.7253053,111.151202 35.8574778,108.828372 35.8574778,105.060757 C30.6094532,105.64346 26.4110336,104.629717 23.2622189,102.019526 L24.8405137,96.7991452 C25.1048586,96.2244244 25.3614287,95.426201 25.6257736,94.4124573 C25.8901186,93.3987136 26.022291,92.6004902 26.022291,92.0177871 C26.286636,89.4075967 26.4110336,85.3526219 26.4110336,79.8448805 C26.4110336,69.1167583 27.4606385,62.0205524 29.5598483,58.5402985 C32.4443181,53.3199175 37.4357726,50.7097271 44.518662,50.7097271 C55.2712812,50.7097271 61.4367382,56.0737882 63.0072581,66.8019105 C63.535948,69.4121009 63.8002929,73.2515554 63.8002929,78.3202739 L63.8002929,87.6674697 C63.8002929,90.8603632 64.4533804,94.3406172 65.7673303,98.1082315 C66.8169352,100.423079 67.2056777,101.732166 66.9413328,102.019526 L64.5855529,103.32063 C63.271603,103.903333 61.0402208,104.486036 57.891406,105.060757 C55.7921962,105.060757 54.6181937,105.204437 54.3538487,105.49978 L54.3538487,110.281138 C54.3538487,112.021265 55.0069362,113.035009 56.3208861,113.322369 C56.8418011,113.617712 57.8292072,113.905072 59.2675547,114.192433 C60.713677,114.479793 61.9576532,114.846976 63.0072581,115.278017 C64.056863,115.717039 64.8498978,116.21992 65.3708129,116.802623 C66.1560728,118.25539 65.8917279,118.973791 64.5855529,118.973791 C60.9080483,119.556494 58.155751,120.282877 56.3208861,121.152941 L55.9243687,121.152941 L53.9573313,122.023004 L54.3538487,122.023004 C54.8747638,121.727661 55.2712812,121.440301 55.5356261,121.152941 L55.5356261,121.152941 Z M55.9243687,121.152941 L56.3208861,121.152941 L55.5356261,121.152941 L55.9243687,121.152941 Z M136.596224,126.804362 C142.100819,129.11921 146.49361,132.814984 149.774597,137.891685 C153.055584,142.960403 154.696078,148.691647 154.696078,155.06147 L143.679114,155.06147 L45.303922,155.06147 C45.303922,144.62869 48.8414793,136.654439 55.9243687,131.15468 C58.5522684,129.11921 64.9742954,126.804362 75.2059996,124.194172 C81.503629,123.324108 84.9167887,121.440301 85.4377037,118.54275 C85.7020487,117.385326 85.8342212,114.048753 85.8342212,108.541011 C85.8342212,107.670948 85.5698762,106.944564 85.0489612,106.369844 C83.9993563,105.204437 82.9497514,103.17695 81.9001465,100.279399 C81.3714566,97.9645513 80.8505416,94.4842974 80.3218517,89.8466195 C79.2722468,90.13398 78.424788,89.7029393 77.7639256,88.5375332 C77.1108381,87.3801093 76.5821483,85.8555026 76.1934057,83.9716954 C75.7968883,82.0878883 75.602517,81.0023045 75.602517,80.714944 C74.5529121,74.3371392 74.9494295,71.2959081 76.7842944,71.5832685 C75.9990344,70.4258446 75.3381721,67.671974 74.817257,63.3216565 C74.0242222,56.9438517 74.4207396,51.2924301 75.9990344,46.3673919 C77.8338993,40.8596505 81.1071116,36.6530133 85.8342212,33.7554624 C90.5535558,30.8579115 95.6694079,29.5488252 101.181777,29.8441679 C106.429802,30.1315283 111.211335,31.8716552 115.541928,35.0565665 C119.87252,38.2494601 122.819188,42.5997775 124.397483,48.0995366 C125.703658,52.1624936 125.83583,57.8139152 124.786226,65.0617835 C124.265311,68.5420374 123.736621,70.7132051 123.215706,71.5832685 C124.000966,71.2959081 124.591854,71.5832685 124.988372,72.453332 C125.377114,73.3233955 125.509287,74.4089793 125.377114,75.7100834 C125.244942,77.0191698 125.120544,78.1765937 124.988372,79.1903374 C124.856199,80.2040811 124.661828,81.0023045 124.397483,81.5850075 L123.612223,84.6262386 C123.347878,86.653726 122.889162,88.1064926 122.2283,88.976556 C121.575212,89.8466195 120.719978,90.13398 119.670373,89.8466195 C119.149458,96.2244244 118.232026,100.718422 116.918076,103.32063 C116.918076,103.615973 116.45936,104.334374 115.541928,105.49978 C114.624495,106.657204 114.165779,107.383587 114.165779,107.670948 L114.165779,112.452306 C114.165779,115.349857 114.430124,117.529006 114.951039,118.973791 C115.479729,120.426557 117.314594,121.583981 120.463408,122.454045 C122.298273,123.324108 124.988372,124.050491 128.525929,124.625212 C132.071261,125.207915 134.76136,125.934299 136.596224,126.804362 L136.596224,126.804362 Z" id="svg:team" fill="#FFFFFF"></path>
            <path d="M60.3949081,153.658001 L139.605092,153.658001 L139.605092,30.7316002 L60.3949081,30.7316002 L60.3949081,153.658001 Z M100,176.710692 C105.279124,176.710692 107.922573,174.148395 107.922573,169.023801 C107.922573,163.899207 105.279124,161.344892 100,161.344892 C94.7208761,161.344892 92.0774267,163.899207 92.0774267,169.023801 C92.0774267,174.148395 94.7208761,176.710692 100,176.710692 L100,176.710692 Z M86.1374404,15.3658001 C84.8157157,15.3658001 84.1548533,16.0043788 84.1548533,17.2895185 C84.1548533,18.5666759 84.8157157,19.2052546 86.1374404,19.2052546 C87.4591651,19.2052546 88.1200274,18.5666759 88.1200274,17.2895185 C88.1200274,16.0043788 87.4591651,15.3658001 86.1374404,15.3658001 L86.1374404,15.3658001 Z M92.0774267,17.2895185 C92.0774267,18.5666759 92.738289,19.2052546 94.0600137,19.2052546 L105.939986,19.2052546 C107.261711,19.2052546 107.922573,18.5666759 107.922573,17.2895185 C107.922573,16.0043788 107.261711,15.3658001 105.939986,15.3658001 L94.0600137,15.3658001 C92.738289,15.3658001 92.0774267,16.0043788 92.0774267,17.2895185 L92.0774267,17.2895185 Z M135.639918,0 C138.94423,0 141.750951,1.12549497 144.060082,3.36052044 C146.369212,5.60352815 147.527665,8.32546988 147.527665,11.5263456 L147.527665,172.863256 C147.527665,176.064132 146.369212,178.786073 144.060082,181.029081 C141.750951,183.272089 138.94423,184.389601 135.639918,184.389601 L64.3523074,184.389601 C61.0479956,184.389601 58.2490492,183.272089 55.9399184,181.029081 C53.6230127,178.786073 52.4723348,176.064132 52.4723348,172.863256 L52.4723348,11.5263456 C52.4723348,8.32546988 53.6230127,5.60352815 55.9399184,3.36052044 C58.2490492,1.12549497 61.0479956,0 64.3523074,0 L135.639918,0 Z" id="svg:mobile" fill="#FFFFFF"></path>
            <path d="M99.7861916,134.805105 C111.37072,134.860981 121.384728,130.702237 129.820442,122.320892 C138.26393,113.939546 142.516774,103.937807 142.571198,92.3156745 C142.633396,80.6935421 138.481626,70.6439097 130.131436,62.1747596 C121.773471,53.7056095 111.806112,49.4430967 100.221583,49.3792388 C88.637055,49.3233631 78.6308215,53.482107 70.1873332,61.8634525 C61.7438448,70.2527802 57.498776,80.2545192 57.4365772,91.8766517 C57.3743784,103.498784 61.526149,113.540434 69.8763391,122.009584 C78.2343041,130.478734 88.2016633,134.74923 99.7861916,134.805105 M167.334099,92.4433903 C167.279675,102.317414 172.597673,110.483239 183.280318,116.932884 C181.810872,121.570562 179.462866,127.078303 176.244078,133.456108 C166.408891,131.077402 157.421163,133.943024 149.265344,142.029027 C141.995859,149.260931 139.632304,158.256908 142.182455,169.016959 C135.791527,172.185906 130.279158,174.476807 125.637572,175.905627 C119.324393,165.121629 110.663208,159.701693 99.661794,159.645817 C88.6526047,159.589941 79.9369965,164.922073 73.5149695,175.642213 C68.313594,173.870158 62.6768269,171.515399 56.612443,168.577937 C59.2714421,157.554472 57.1489077,148.534547 50.2292902,141.526146 C43.3174475,134.517745 34.3530441,132.290702 23.33608,134.845016 C20.4671599,128.730625 18.1813536,123.055257 16.4708864,117.810929 C27.2157307,111.481018 32.6192523,102.788365 32.6736762,91.7489359 C32.7281002,81.8669305 27.410102,73.7090875 16.7274565,67.2594426 C18.787792,60.8736555 21.1357971,55.3659142 23.7636968,50.7362185 C33.5988835,53.106942 42.5866115,50.2493023 50.7424304,42.1553172 C57.7242467,35.218756 59.9400793,26.2227784 57.397703,15.1673846 C63.4931863,12.2937804 69.1455031,9.99489707 74.3702031,8.2787168 C80.6833823,19.0627147 89.3445665,24.4826515 100.353756,24.5385271 C111.35517,24.5944027 120.070778,19.2702528 126.492805,8.55011275 C131.701956,10.3221687 137.330948,12.6689454 143.403107,15.6064075 C140.736333,26.6378546 142.866642,35.6577788 149.778485,42.6661801 C157.841005,50.8399876 166.805409,53.7934141 176.66392,51.5184774 C179.812735,57.9282112 182.106316,63.4598993 183.529114,68.1135416 C172.784269,74.4514352 167.380748,82.5613848 167.334099,92.4433903" id="svg:application" fill="#FFFFFF"></path>
            <path d="M120.420647,176.703851 L79.5793534,176.703851 C69.2232516,176.703851 64.1851481,175.682125 64.4883672,173.630691 C64.4883672,173.047987 65.0792559,172.321604 66.2610333,171.443558 C67.4428107,170.565513 69.2932253,169.392124 71.8122771,167.931376 C74.323554,166.470627 76.2517171,165.225398 77.5812166,164.203672 C78.9107162,163.181946 79.5793534,162.232061 79.5793534,161.354015 L80.0225199,141.613951 L99.9961126,141.613951 L119.97748,141.613951 C120.272924,153.603266 120.420647,160.180627 120.420647,161.354015 C120.420647,162.232061 121.089284,163.181946 122.418783,164.203672 C123.748283,165.225398 125.676446,166.470627 128.187723,167.931376 C130.706775,169.392124 132.557189,170.565513 133.738967,171.443558 C137.292074,174.069713 135.659355,175.682125 128.85636,176.264828 L120.420647,176.703851 Z M14.7604191,120.556818 L185.231806,120.556818 L185.231806,22.3114839 L14.7604191,22.3114839 L14.7604191,120.556818 Z M194.561627,8.2787168 C197.811515,8.2787168 199.444234,9.8831458 199.444234,13.099986 L199.444234,129.776298 C199.444234,132.985156 197.811515,134.597567 194.561627,134.597567 L5.43837256,134.597567 C2.18848477,134.597567 0.555766019,132.985156 0.555766019,129.776298 L0.555766019,13.099986 C0.555766019,9.8831458 2.18848477,8.2787168 5.43837256,8.2787168 L194.561627,8.2787168 Z M140.070805,113.076667 L139.650964,104.934788 C139.098949,102.228811 133.462182,98.9002192 122.748437,94.9649779 C122.328595,94.82928 121.986502,94.693582 121.706607,94.557884 C115.167957,92.2590007 111.754797,90.9658788 111.474903,90.6944829 C110.642994,90.151691 110.223152,87.8448254 110.223152,83.7738861 C110.223152,82.1534927 110.852915,80.5570459 112.104666,78.9925281 C113.356417,77.4359925 114.328273,74.690104 115.02801,70.7548627 C115.307904,69.397883 115.719972,68.3122992 116.279761,67.4981113 C116.831775,66.6839235 117.391565,65.0555478 117.951354,62.6209665 C118.363421,61.3996847 118.402295,60.2422608 118.052427,59.156677 C117.702559,58.0710932 117.531512,57.3926033 117.531512,57.1212074 C117.811407,54.9500398 118.083526,52.7150143 118.363421,50.4081487 C118.643316,47.2870953 117.251617,43.9345571 114.188326,40.3345696 C111.132809,36.7425644 106.397925,34.9465618 99.9992225,34.9465618 C93.60052,34.9465618 88.8656356,36.7425644 85.8101191,40.3345696 C82.7468278,43.9345571 81.3551294,47.2870953 81.635024,50.4081487 C81.9149187,52.7150143 82.1870385,54.9500398 82.4669331,57.1212074 C82.4669331,57.3926033 82.2958864,58.0710932 81.9460181,59.156677 C81.5961498,60.2422608 81.635024,61.3996847 82.054866,62.6209665 C82.6068804,65.0555478 83.1666697,66.6839235 83.7186842,67.4981113 C84.2784734,68.3122992 84.6983154,69.397883 84.9704352,70.7548627 C85.6701718,74.690104 86.6420282,77.4359925 87.8937792,78.9925281 C89.1455303,80.5570459 89.7752932,82.1534927 89.7752932,83.7738861 L89.7752932,84.9951679 C89.7752932,87.9805233 89.4953986,89.776526 88.9356093,90.391158 C88.3835949,90.9978077 86.5020809,91.8519068 83.306617,92.9374906 C80.9352874,93.7436962 78.921601,94.422186 77.250008,94.9649779 C66.536263,98.9002192 60.8994959,102.228811 60.3474815,104.934788 C60.0675869,106.83456 59.9276395,109.548519 59.9276395,113.076667 L99.9992225,113.076667 L140.070805,113.076667 Z" id="svg:conference" fill="#FFFFFF"></path>
            <path d="M181.514192,180.145319 C181.514192,191.118121 172.632313,200 161.659511,200 L39.3859504,200 C28.9313336,200 21.0949166,193.72723 19.0039932,183.281704 C18.4858079,180.663505 18.4858079,178.054396 18.4858079,174.918011 L18.4858079,44.2898474 C18.4858079,33.8352307 25.7949486,24.953352 36.2495653,23.380614 C41.4768737,22.8624286 46.6950911,23.380614 52.4496758,23.380614 L52.4496758,24.4260756 L52.4496758,43.7625711 L38.858674,43.7625711 L38.858674,179.099857 L160.61405,179.099857 L160.61405,43.7625711 L147.550324,43.7625711 L147.550324,23.380614 L151.732171,23.380614 C155.914018,23.380614 160.61405,23.380614 164.795896,23.9078903 C174.19596,25.4715373 180.996007,33.8352307 180.996007,43.7625711 L180.996007,131.026802 C181.514192,147.745098 181.514192,163.945209 181.514192,180.145319 Z M139.188449,23.3842503 C140.233911,23.9024357 140.752096,24.429712 140.233911,25.4751737 L140.233911,52.1208099 C140.233911,55.7844713 138.142987,57.8753946 134.488417,57.8753946 L99.9972727,57.8753946 L65.5061285,57.8753946 C61.3333727,57.8753946 59.2424494,55.7844713 59.2424494,51.6026246 L59.2424494,25.4751737 C59.2424494,24.429712 59.7606347,23.9024357 60.8060964,23.3842503 C64.9879431,21.8206033 69.1697898,20.7751416 73.3516365,19.2024037 C74.3970982,18.6842183 75.4425598,18.156942 75.9607452,17.1114803 C77.5334832,15.020557 78.5698539,13.4569099 79.6153156,11.3659866 C89.5517469,-3.7886622 110.451889,-3.7886622 119.851954,11.3659866 C122.988339,16.593295 126.652,20.2478653 132.397494,21.293327 C134.488417,21.8206033 137.097526,22.866065 139.188449,23.3842503 Z M99.9972727,35.4025141 C106.270043,35.4025141 110.970075,30.1752057 110.970075,23.9024357 C110.970075,17.6387566 106.270043,12.4114483 99.9972727,12.4114483 C93.7245027,12.4114483 88.5062853,17.6387566 88.5062853,23.9024357 C88.5062853,30.7024821 93.2063173,35.4025141 99.9972727,35.4025141 Z M59.2369948,112.219401 L59.2369948,71.9827635 L99.4736328,71.9827635 L99.4736328,112.219401 L59.2369948,112.219401 Z M66.5552265,105.419355 L93.2008627,105.419355 L93.2008627,78.7737189 L66.5552265,78.7737189 L66.5552265,105.419355 Z M59.2406312,166.559772 L59.2406312,125.804949 L92.1590374,125.804949 C90.0681141,127.895872 87.9771908,129.977704 85.8862674,132.068628 C85.3680821,132.595904 84.3226204,132.595904 83.7953441,132.595904 L68.1225099,132.595904 L66.0315866,132.595904 L66.0315866,159.768817 L93.2044991,159.768817 C91.1135758,154.014232 96.3408841,151.9324 99.4772692,148.268738 L99.4772692,166.559772 L59.2406312,166.559772 Z M103.655479,121.098553 C106.791864,123.707662 108.882788,126.325861 110.446435,128.416785 C101.046371,137.816849 91.6372157,147.226004 82.2280606,156.635159 C77.5280286,151.926036 72.8279966,147.226004 68.1188735,142.525972 C70.7370732,139.907772 72.8279966,137.816849 75.4371053,135.20774 C77.5280286,137.816849 80.1371373,139.907772 82.2280606,142.525972 C89.5462924,135.20774 96.8645241,127.889508 103.655479,121.098553 Z M113.58282,98.6283997 L113.58282,91.8374443 L140.237547,91.8374443 L140.237547,98.6283997 L113.58282,98.6283997 Z M113.58282,152.974225 L113.58282,146.710546 L140.237547,146.710546 L140.237547,152.974225 L113.58282,152.974225 Z" id="svg:survey" fill="#FFFFFF"></path>
            <path d="M174.427273,189.4 C170.409091,189.4 166.945455,187.945455 164.036364,185.036364 C161.118182,182.127273 159.663636,178.654545 159.663636,174.636364 C159.663636,170.481818 161.118182,166.981818 164.036364,164.136364 C166.945455,161.3 170.409091,159.881818 174.427273,159.881818 C178.581818,159.881818 182.081818,161.3 184.927273,164.136364 C187.763636,166.981818 189.190909,170.481818 189.190909,174.636364 C189.190909,178.654545 187.763636,182.127273 184.927273,185.036364 C182.081818,187.945455 178.581818,189.4 174.427273,189.4 M100,189.4 C95.9818182,189.4 92.5181818,187.945455 89.6,185.036364 C86.6909091,182.127273 85.2363636,178.654545 85.2363636,174.636364 C85.2363636,170.481818 86.6909091,166.981818 89.6,164.136364 C92.5181818,161.3 95.9818182,159.881818 100,159.881818 C104.018182,159.881818 107.481818,161.3 110.390909,164.136364 C113.3,166.981818 114.763636,170.481818 114.763636,174.636364 C114.763636,178.654545 113.3,182.127273 110.390909,185.036364 C107.481818,187.945455 104.018182,189.4 100,189.4 M25.5727273,189.4 C21.4090909,189.4 17.9090909,187.945455 15.0727273,185.036364 C12.2272727,182.127273 10.8090909,178.654545 10.8090909,174.636364 C10.8090909,170.481818 12.2272727,166.981818 15.0727273,164.136364 C17.9090909,161.3 21.4090909,159.881818 25.5727273,159.881818 C29.5909091,159.881818 33.0181818,161.3 35.8636364,164.136364 C38.7,166.981818 40.1272727,170.481818 40.1272727,174.636364 C40.1272727,178.654545 38.7,182.127273 35.8636364,185.036364 C33.0181818,187.945455 29.5909091,189.4 25.5727273,189.4 M100,10.8181818 C104.018182,10.8181818 107.481818,12.2363636 110.390909,15.0727273 C113.3,17.9181818 114.763636,21.4181818 114.763636,25.5727273 C114.763636,29.5909091 113.3,33.0545455 110.390909,35.9727273 C107.481818,38.8818182 104.018182,40.3363636 100,40.3363636 C95.9818182,40.3363636 92.5181818,38.8818182 89.6,35.9727273 C86.6909091,33.0545455 85.2363636,29.5909091 85.2363636,25.5727273 C85.2363636,21.4181818 86.6909091,17.9181818 89.6,15.0727273 C92.5181818,12.2363636 95.9818182,10.8181818 100,10.8181818 M185.236364,151.354545 L185.236364,126.618182 C185.236364,116.354545 181.6,107.590909 174.327273,100.318182 C167.045455,93.0363636 158.209091,89.4 147.818182,89.4 L126.609091,89.4 C122.172727,89.4 118.4,87.8363636 115.281818,84.7181818 C112.163636,81.6 110.6,77.8272727 110.6,73.3909091 L110.6,48.6545455 C115.036364,46.7090909 118.636364,43.6636364 121.409091,39.5 C124.181818,35.3454545 125.572727,30.7 125.572727,25.5727273 C125.572727,18.5090909 123.072727,12.4727273 118.081818,7.49090909 C113.1,2.5 107.063636,0 100,0 C92.9272727,0 86.9,2.5 81.9090909,7.49090909 C76.9181818,12.4727273 74.4272727,18.5090909 74.4272727,25.5727273 C74.4272727,30.7 75.8090909,35.3454545 78.5818182,39.5 C81.3545455,43.6636364 84.9636364,46.7090909 89.4,48.6545455 L89.4,73.3909091 C89.4,77.8272727 87.8363636,81.6 84.7181818,84.7181818 C81.6,87.8363636 77.8272727,89.4 73.3909091,89.4 L52.1818182,89.4 C41.7909091,89.4 32.9545455,93.0363636 25.6727273,100.318182 C18.4,107.590909 14.7636364,116.354545 14.7636364,126.618182 L14.7636364,151.354545 C10.4636364,153.436364 6.92727273,156.518182 4.15454545,160.609091 C1.38181818,164.690909 0,169.372727 0,174.636364 C0,181.709091 2.49090909,187.7 7.48181818,192.618182 C12.4727273,197.545455 18.5,200 25.5727273,200 C32.6363636,200 38.6363636,197.509091 43.5545455,192.518182 C48.4727273,187.527273 50.9363636,181.572727 50.9363636,174.636364 C50.9363636,169.372727 49.5454545,164.690909 46.7727273,160.609091 C44,156.518182 40.4727273,153.436364 36.1727273,151.354545 L36.1727273,126.618182 C36.1727273,122.181818 37.7363636,118.4 40.8545455,115.281818 C43.9727273,112.163636 47.7454545,110.609091 52.1818182,110.609091 L73.3909091,110.609091 C76.3,110.609091 79.0727273,110.290909 81.7,109.672727 C84.3363636,109.045455 86.9,108.109091 89.4,106.863636 L89.4,151.354545 C84.9636364,153.436364 81.3545455,156.518182 78.5818182,160.609091 C75.8090909,164.690909 74.4272727,169.372727 74.4272727,174.636364 C74.4272727,181.709091 76.9181818,187.7 81.9090909,192.618182 C86.9,197.545455 92.9272727,200 100,200 C107.063636,200 113.1,197.509091 118.081818,192.518182 C123.072727,187.527273 125.572727,181.572727 125.572727,174.636364 C125.572727,169.372727 124.181818,164.690909 121.409091,160.609091 C118.636364,156.518182 115.036364,153.436364 110.6,151.354545 L110.6,106.863636 C113.1,108.109091 115.663636,109.045455 118.290909,109.672727 C120.927273,110.290909 123.7,110.609091 126.609091,110.609091 L147.818182,110.609091 C152.254545,110.609091 156.027273,112.163636 159.145455,115.281818 C162.263636,118.4 163.827273,122.181818 163.827273,126.618182 L163.827273,151.354545 C159.527273,153.436364 155.990909,156.518182 153.218182,160.609091 C150.445455,164.690909 149.063636,169.372727 149.063636,174.636364 C149.063636,181.709091 151.527273,187.7 156.445455,192.618182 C161.363636,197.545455 167.354545,200 174.427273,200 C181.5,200 187.527273,197.509091 192.518182,192.518182 C197.5,187.527273 200,181.572727 200,174.636364 C200,169.372727 198.609091,164.690909 195.845455,160.609091 C193.072727,156.518182 189.536364,153.436364 185.236364,151.354545" id="svg:administer" fill="#FFFFFF"></path>
        </g>
    </g>
</svg>