<svg id="Layer_1" data-name="Layer 1" xmlns="http://www.w3.org/2000/svg" xmlns:xlink="http://www.w3.org/1999/xlink" viewBox="0 0 48.85 46.44"><defs><style>.cls-1{fill:none;clip-rule:evenodd;}.cls-2{fill:#3fb1bd;}.cls-3{clip-path:url(#clip-path);}</style><clipPath id="clip-path" transform="translate(5)"><path class="cls-1" d="M21.82,31.63l7.24-8H0.86a0.86,0.86,0,0,1,0-1.73h28.2l-7.24-8a0.81,0.81,0,0,1,0-1.3,0.81,0.81,0,0,1,1.3,0l8.64,9.51a1.08,1.08,0,0,1,0,1.3l-8.64,9.51a1.08,1.08,0,0,1-1.3,0A0.81,0.81,0,0,1,21.82,31.63Z"/></clipPath></defs><title>arrow-right-circle-half</title><path class="cls-2" d="M20.63,46.44a23.07,23.07,0,0,1-16.42-6.8,0.75,0.75,0,1,1,1.06-1.06A21.72,21.72,0,0,0,36,7.86a21.72,21.72,0,0,0-30.72,0A0.75,0.75,0,0,1,4.21,6.8,23.22,23.22,0,0,1,37,6.8,23.22,23.22,0,0,1,20.63,46.44Z" transform="translate(5)"/><g class="cls-3"><rect class="cls-2" y="7.29" width="41.98" height="30.85"/></g></svg>