<svg xmlns="http://www.w3.org/2000/svg" viewBox="0 0 1030.9 121.87"><defs></defs><title>logo</title><g id="Layer_2" data-name="Layer 2"><path class="cls-1" d="M829.88,50.89l3.65-7.83H871l-27.07,58c-2.08,4.16-1.26,7.89,1.76,7.88,2.75,0,5.22-2.16,8.48-4.19l4.52,6.29c-8.26,6.72-15.54,9.14-28.85,9.14-10.8,0-16.12-6.72-17.42-11.68-4.85,6.06-12.89,11.68-28,11.68-14.32,0-28-8.15-28-29.74,0-28.64,25.33-50.23,54-50.23C819.43,40.24,828.68,45.52,829.88,50.89Zm-13.54,2.79c-8.81,0-14.89,15.48-19.56,25.5s-12.17,29.58-1.37,29.58c9.69,0,15.9-19.11,20.32-28.59S826.7,53.68,816.34,53.68Z" transform="translate(0 0)"/><path class="cls-1" d="M646.62,109c-3,0-3.84-3.72-1.76-7.88l13.66-27c7.34-15.74,3.26-33.84-19.8-33.84-13.07,0-15.41,2.86-21.73,6.39L633.38,11.5H596L557.94,93c0,.06-3.6,7.68-9.26,11.82-3.1,2.27-5.74,4.18-8.48,4.19-3,0-3.84-3.72-1.76-7.88l27.07-58H528.09l-3.65,7.83C523.24,45.52,514,40.24,505,40.24c-28.64,0-54,21.59-54,50.23,0,21.59,13.66,29.74,28,29.74,15.09,0,23.13-5.62,28-11.68,1.31,5,6.63,11.68,17.42,11.68,10.3,0,17-1.46,23.32-5.23l-1.51,3.24h37.17l18.15-39.06c4.67-10,10.75-25.5,19.56-25.5,10.35,0,.09,17-4.33,26.49s-9.86,21.3-6.84,29,10.12,11,20.91,11c13.31,0,20.59-2.42,28.85-9.14l-4.52-6.29C651.84,106.82,649.37,109,646.62,109ZM510.29,80.16c-4.42,9.48-10.62,28.59-20.32,28.59-10.8,0-3.3-19.56,1.37-29.58s10.75-25.5,19.56-25.5C521.26,53.68,514.71,70.68,510.29,80.16Z" transform="translate(0 0)"/><path class="cls-1" d="M357.56,43.06H395l-27.07,58c-2.08,4.16-1.26,7.89,1.76,7.88,2.75,0,5.22-2.16,8.48-4.19l4.52,6.29c-8.26,6.72-15.54,9.14-28.85,9.14-10.8,0-16.12-6.72-17.42-11.68-4.85,6.06-12.89,11.68-28,11.68-23.06,0-29.45-20.09-22.11-35.83l12.6-27c2.08-4.16.54-5.91-2.48-5.9-2.75,0-5.22,2.16-8.48,4.19l-4.52-6.29c8.26-6.72,15.54-9.14,28.85-9.14,10.8,0,16.84,3.86,19.85,11.57s-.64,17-5.06,26.5-18,30.45-7.63,30.45c7.91,0,15.9-19.11,20.32-28.59Z" transform="translate(0 0)"/><path class="cls-1" d="M724.76,40.24c-32.6,0-58.82,21.59-58.82,50.23,0,21.59,18,29.74,32.34,29.74,17.16,0,31.63-4.26,45.63-16l-4.52-6.29C725.94,106.55,718.6,109,710.08,109c-10.94,0-10.2-11.2-7.17-21,17.53-.51,42-3.65,50.89-22.69C760,52.09,747.61,40.24,724.76,40.24ZM706.31,81h-.8c.27-.62.53-1.21.8-1.78,4.67-10,10.75-25.5,19.56-25.5C736.22,53.68,722.93,81,706.31,81Z" transform="translate(0 0)"/><path class="cls-1" d="M156.68,53.52c-8.81,0-15.78,16.37-20.45,26.39s-10.77,29.81,3.77,29.81c8.52,0,15.86-2.43,29.31-11.08l4.52,6.29c-14,11.76-28.47,16-45.63,16-14.32,0-32.34-8.15-32.34-29.74C95.86,62.56,122.08,41,154.69,41c22.84,0,34.85,11.7,29,25-2.91,6.68-7.32,10.43-15.91,10.43s-11.58-9.25-7.93-14.54C164.29,55.51,162.06,53.52,156.68,53.52Z" transform="translate(0 0)"/><path class="cls-1" d="M939.89,50.89,958.11,11.8h37.42l-41.64,89.3c-2.08,4.16-1.26,7.89,1.76,7.88,2.75,0,5.22-2.16,8.48-4.19l4.52,6.29c-8.26,6.72-15.54,9.14-28.85,9.14-10.8,0-16.12-6.72-17.42-11.68-4.85,6.06-12.89,11.68-28,11.68-14.32,0-28-8.15-28-29.74,0-28.64,25.33-50.23,54-50.23C929.44,40.24,938.69,45.52,939.89,50.89Zm-13.54,2.79c-8.81,0-14.89,15.48-19.56,25.5s-12.17,29.58-1.37,29.58c9.69,0,15.9-19.11,20.32-28.59S936.71,53.68,926.35,53.68Z" transform="translate(0 0)"/><path class="cls-1" d="M220.18,120.94c-28.37,0-43.51-24.74-32.28-48.83C198.07,50.3,217.63,41,243.68,41c34.49,0,42.62,24.74,31.39,48.83C264.9,111.61,244.6,120.94,220.18,120.94ZM244,54.4c-8.81,0-15.78,15.48-20.45,25.5s-14.83,29.58-4,29.58c9.69,0,18.56-19.11,23-28.59S254.36,54.4,244,54.4Z" transform="translate(0 0)"/><path class="cls-1" d="M449.43,50.65h11.76l3.73-8H453.15l11.32-24.28H452.94c-11.16,12.09-31.89,24.28-48,24.28l-3.73,8h10.33L397.75,80.16c-4.42,9.48-8.8,20.77-5.78,28.48s9.06,11.57,19.85,11.57c13.31,0,20.59-2.42,28.85-9.14l-4.52-6.29c-3.26,2-5.74,4.18-8.48,4.19-3,0-3.84-3.72-1.76-7.88Z" transform="translate(0 0)"/><ellipse class="cls-1" cx="103.65" cy="26.46" rx="17.23" ry="14.01" transform="translate(35.86 109.22) rotate(-65)"/><path class="cls-1" d="M42.46,26.7c-3.92,10-5,18.06-2.63,39.07s4.55,39.29-8.37,43.17c-4.47,1.34-8.06-.64-9.55-3.05,4.16-2.35,8.66-5.66,11.1-10.9,5.06-10.86,1.83-23.48-6.33-27.28S7.8,69.61,2.74,80.47C-.26,86.9-.39,95.79.44,98.93c2.24,8.55,10.38,22.93,37,22.93,36.31,0,52.18-19.09,49.24-52.58-1.52-17.33-6.29-31-3.07-45.68,2.22-10.09,9.65-17.83,21.11-19.45-1.19-.56-2.42-1.08-3.71-1.55C80.89-4.79,51.53,3.65,42.46,26.7Z" transform="translate(0 0)"/><path class="cls-1" d="M1016.14,11.51v1.91h-3.69V23h-2.29V13.41h-3.69V11.51ZM1028.61,23l-.42-6.79c0-.89,0-2-.08-3.22H1028c-.3,1-.64,2.38-1,3.44l-2.08,6.41h-2.38l-2.08-6.58c-.21-.89-.55-2.25-.81-3.27h-.13c0,1.06,0,2.16-.08,3.22L1019,23h-2.21l.85-11.54h3.44l2,5.64c.25.89.47,1.74.76,2.93h0c.3-1.06.55-2,.81-2.88l2-5.68H1030L1030.9,23Z" transform="translate(0 0)"/></g></svg>
